<svg xmlns="http://www.w3.org/2000/svg" fill="none" viewBox="77.34 -2.66 417.32 378.32">
<mask id="path-1-inside-1_1_4" fill="white">
<path fill-rule="evenodd" clip-rule="evenodd" d="M146.517 0C109.78 0 80 29.7805 80 66.5165V145.426V153.393V266.573C80 303.825 80 322.452 87.2499 336.68C93.627 349.196 103.803 359.372 116.319 365.749C130.547 372.999 149.174 372.999 186.426 372.999H385.572C422.825 372.999 441.452 372.999 455.68 365.749C468.196 359.372 478.372 349.196 484.749 336.68C491.999 322.452 491.999 303.825 491.999 266.573V145.426C491.999 108.174 491.999 89.5472 484.749 75.3186C478.372 62.8027 468.196 52.6269 455.68 46.2498C441.452 38.9999 422.825 38.9999 385.572 38.9999H340.772C306.429 38.9999 273.433 0 239.09 0H146.517Z"/>
</mask>
<path fill-rule="evenodd" clip-rule="evenodd" d="M146.517 0C109.78 0 80 29.7805 80 66.5165V145.426V153.393V266.573C80 303.825 80 322.452 87.2499 336.68C93.627 349.196 103.803 359.372 116.319 365.749C130.547 372.999 149.174 372.999 186.426 372.999H385.572C422.825 372.999 441.452 372.999 455.68 365.749C468.196 359.372 478.372 349.196 484.749 336.68C491.999 322.452 491.999 303.825 491.999 266.573V145.426C491.999 108.174 491.999 89.5472 484.749 75.3186C478.372 62.8027 468.196 52.6269 455.68 46.2498C441.452 38.9999 422.825 38.9999 385.572 38.9999H340.772C306.429 38.9999 273.433 0 239.09 0H146.517Z" fill="url(#paint0_radial_1_4)"/>
<path d="M87.2499 336.68L89.6205 335.472L87.2499 336.68ZM116.319 365.749L117.527 363.378L116.319 365.749ZM455.68 365.749L454.472 363.378L455.68 365.749ZM484.749 336.68L482.378 335.472L484.749 336.68ZM484.749 75.3186L482.378 76.5265L484.749 75.3186ZM455.68 46.2498L454.472 48.6204L455.68 46.2498ZM82.6607 66.5165C82.6607 31.2499 111.25 2.66066 146.517 2.66066V-2.66066C108.311 -2.66066 77.3393 28.311 77.3393 66.5165H82.6607ZM82.6607 145.426V66.5165H77.3393V145.426H82.6607ZM82.6607 153.393V145.426H77.3393V153.393H82.6607ZM82.6607 266.573V153.393H77.3393V266.573H82.6607ZM89.6205 335.472C86.2186 328.796 84.4509 320.971 83.5581 310.044C82.6627 299.086 82.6607 285.243 82.6607 266.573H77.3393C77.3393 285.155 77.3373 299.252 78.2544 310.477C79.1741 321.733 81.0313 330.336 84.8792 337.888L89.6205 335.472ZM117.527 363.378C105.511 357.256 95.7426 347.488 89.6205 335.472L84.8792 337.888C91.5115 350.905 102.094 361.488 115.111 368.12L117.527 363.378ZM186.426 370.338C167.756 370.338 153.913 370.336 142.955 369.441C132.028 368.548 124.203 366.78 117.527 363.378L115.111 368.12C122.663 371.968 131.266 373.825 142.522 374.745C153.747 375.662 167.844 375.66 186.426 375.66V370.338ZM385.572 370.338H186.426V375.66H385.572V370.338ZM454.472 363.378C447.796 366.78 439.971 368.548 429.044 369.441C418.085 370.336 404.243 370.338 385.572 370.338V375.66C404.155 375.66 418.252 375.662 429.477 374.745C440.733 373.825 449.336 371.968 456.888 368.12L454.472 363.378ZM482.378 335.472C476.256 347.488 466.488 357.256 454.472 363.378L456.888 368.12C469.905 361.488 480.487 350.905 487.12 337.888L482.378 335.472ZM489.338 266.573C489.338 285.243 489.336 299.086 488.441 310.044C487.548 320.971 485.78 328.796 482.378 335.472L487.12 337.888C490.968 330.336 492.825 321.733 493.745 310.477C494.662 299.252 494.66 285.155 494.66 266.573H489.338ZM489.338 145.426V266.573H494.66V145.426H489.338ZM482.378 76.5265C485.78 83.2032 487.548 91.0279 488.441 101.955C489.336 112.913 489.338 126.756 489.338 145.426H494.66C494.66 126.844 494.662 112.747 493.745 101.522C492.825 90.2655 490.968 81.6626 487.12 74.1106L482.378 76.5265ZM454.472 48.6204C466.488 54.7425 476.256 64.5112 482.378 76.5265L487.12 74.1106C480.487 61.0941 469.905 50.5114 456.888 43.8791L454.472 48.6204ZM385.572 41.6606C404.243 41.6606 418.085 41.6626 429.044 42.558C439.971 43.4507 447.796 45.2185 454.472 48.6204L456.888 43.8791C449.336 40.0312 440.733 38.174 429.477 37.2543C418.252 36.3372 404.155 36.3392 385.572 36.3392V41.6606ZM340.772 41.6606H385.572V36.3392H340.772V41.6606ZM146.517 2.66066H239.09V-2.66066H146.517V2.66066ZM340.772 36.3392C324.457 36.3392 308.28 27.0521 291.264 17.1975C274.61 7.55216 257.117 -2.66066 239.09 -2.66066V2.66066C255.405 2.66066 271.582 11.9478 288.598 21.8024C305.252 31.4477 322.744 41.6606 340.772 41.6606V36.3392Z" fill="url(#paint1_linear_1_4)" mask="url(#path-1-inside-1_1_4)"/>
<path d="M87.2499 336.68L89.6205 335.472L87.2499 336.68ZM116.319 365.749L117.527 363.378L116.319 365.749ZM455.68 365.749L454.472 363.378L455.68 365.749ZM484.749 336.68L482.378 335.472L484.749 336.68ZM484.749 75.3186L482.378 76.5265L484.749 75.3186ZM455.68 46.2498L454.472 48.6204L455.68 46.2498ZM82.6607 66.5165C82.6607 31.2499 111.25 2.66066 146.517 2.66066V-2.66066C108.311 -2.66066 77.3393 28.311 77.3393 66.5165H82.6607ZM82.6607 145.426V66.5165H77.3393V145.426H82.6607ZM82.6607 153.393V145.426H77.3393V153.393H82.6607ZM82.6607 266.573V153.393H77.3393V266.573H82.6607ZM89.6205 335.472C86.2186 328.796 84.4509 320.971 83.5581 310.044C82.6627 299.086 82.6607 285.243 82.6607 266.573H77.3393C77.3393 285.155 77.3373 299.252 78.2544 310.477C79.1741 321.733 81.0313 330.336 84.8792 337.888L89.6205 335.472ZM117.527 363.378C105.511 357.256 95.7426 347.488 89.6205 335.472L84.8792 337.888C91.5115 350.905 102.094 361.488 115.111 368.12L117.527 363.378ZM186.426 370.338C167.756 370.338 153.913 370.336 142.955 369.441C132.028 368.548 124.203 366.78 117.527 363.378L115.111 368.12C122.663 371.968 131.266 373.825 142.522 374.745C153.747 375.662 167.844 375.66 186.426 375.66V370.338ZM385.572 370.338H186.426V375.66H385.572V370.338ZM454.472 363.378C447.796 366.78 439.971 368.548 429.044 369.441C418.085 370.336 404.243 370.338 385.572 370.338V375.66C404.155 375.66 418.252 375.662 429.477 374.745C440.733 373.825 449.336 371.968 456.888 368.12L454.472 363.378ZM482.378 335.472C476.256 347.488 466.488 357.256 454.472 363.378L456.888 368.12C469.905 361.488 480.487 350.905 487.12 337.888L482.378 335.472ZM489.338 266.573C489.338 285.243 489.336 299.086 488.441 310.044C487.548 320.971 485.78 328.796 482.378 335.472L487.12 337.888C490.968 330.336 492.825 321.733 493.745 310.477C494.662 299.252 494.66 285.155 494.66 266.573H489.338ZM489.338 145.426V266.573H494.66V145.426H489.338ZM482.378 76.5265C485.78 83.2032 487.548 91.0279 488.441 101.955C489.336 112.913 489.338 126.756 489.338 145.426H494.66C494.66 126.844 494.662 112.747 493.745 101.522C492.825 90.2655 490.968 81.6626 487.12 74.1106L482.378 76.5265ZM454.472 48.6204C466.488 54.7425 476.256 64.5112 482.378 76.5265L487.12 74.1106C480.487 61.0941 469.905 50.5114 456.888 43.8791L454.472 48.6204ZM385.572 41.6606C404.243 41.6606 418.085 41.6626 429.044 42.558C439.971 43.4507 447.796 45.2185 454.472 48.6204L456.888 43.8791C449.336 40.0312 440.733 38.174 429.477 37.2543C418.252 36.3372 404.155 36.3392 385.572 36.3392V41.6606ZM340.772 41.6606H385.572V36.3392H340.772V41.6606ZM146.517 2.66066H239.09V-2.66066H146.517V2.66066ZM340.772 36.3392C324.457 36.3392 308.28 27.0521 291.264 17.1975C274.61 7.55216 257.117 -2.66066 239.09 -2.66066V2.66066C255.405 2.66066 271.582 11.9478 288.598 21.8024C305.252 31.4477 322.744 41.6606 340.772 41.6606V36.3392Z" fill="url(#paint2_linear_1_4)" mask="url(#path-1-inside-1_1_4)"/>
<g filter="url(#filter0_f_1_4)">
<rect x="80" y="94" width="411.999" height="278.999" rx="66.5166" fill="white" fill-opacity="0.15"/>
</g>
<defs>
<filter id="filter0_f_1_4" x="0.180145" y="14.1801" width="571.639" height="438.639" filterUnits="userSpaceOnUse" color-interpolation-filters="sRGB">
<feFlood flood-opacity="0" result="BackgroundImageFix"/>
<feBlend mode="normal" in="SourceGraphic" in2="BackgroundImageFix" result="shape"/>
<feGaussianBlur stdDeviation="39.9099" result="effect1_foregroundBlur_1_4"/>
</filter>
<radialGradient id="paint0_radial_1_4" cx="0" cy="0" r="1" gradientUnits="userSpaceOnUse" gradientTransform="translate(491.999 373.386) rotate(-137.815) scale(556.022 738.268)">
<stop stop-color="#0164E3" stop-opacity="0.37"/>
<stop offset="1" stop-color="#3394F0" stop-opacity="0.45"/>
</radialGradient>
<linearGradient id="paint1_linear_1_4" x1="80" y1="0" x2="479.171" y2="405.359" gradientUnits="userSpaceOnUse">
<stop offset="0.508799" stop-color="#85BFF8"/>
<stop offset="1" stop-color="#1050A9"/>
</linearGradient>
<linearGradient id="paint2_linear_1_4" x1="80" y1="0" x2="541.127" y2="317.655" gradientUnits="userSpaceOnUse">
<stop offset="0.228092" stop-color="#85BFF8"/>
<stop offset="0.99027" stop-color="#0567E4"/>
</linearGradient>
</defs>
</svg>